/* XPM */
static const char * b_arche_xpm[] = {
"16 16 3 1",
" 	c None",
".	c #FFFFFF",
"+	c #000000",
"................",
"......++++......",
"......++++......",
"......++++......",
"......++++......",
"....++++++++....",
"....++++++++....",
"....++++..++....",
"....++++..++....",
"..++++++++++++..",
"..++++++++++++..",
"..++++......++..",
"..++++......++..",
"++++++......++++",
"++++++......++++",
"................"};
