/* XPM */
static const char * b_atdlight_xpm[] = {
"16 16 4 1",
" 	c None",
".	c #FFFFFF",
"+	c #000000",
"@	c #FF0000",
"................",
"......+++.......",
"....++...++.....",
"...+.......+....",
"..+.+@@@@.+.+...",
"..+..+@..@..+...",
".+....@.+@...+..",
".+....@+.@...+..",
".+....@.+@...+..",
"..+..+@..@..+...",
"..+.+@@@@.+.+...",
"...+.......+....",
"....++...++.....",
"......+++.......",
"................",
"................"};
