/* XPM */
static const char *b_file[] = {
/* width height ncolors chars_per_pixel */
"76 21 37 1",
/* colors */
"  c #000000",
". c #A9A9A9",
"X c #B6C2DA",
"o c #999999",
"O c #919191",
"+ c #8D8D8D",
"@ c #818181",
"# c none",
"$ c #7F7F7F",
"% c #7D7D7D",
"& c #696969",
"* c #CED0D6",
"= c #B0B8C9",
"- c #636363",
"; c #5D5D5D",
": c #535353",
"> c #BAC4D9",
", c #474747",
"< c #DADADA",
"1 c #AEB2BC",
"2 c #D3D4D6",
"3 c #C0C0C0",
"4 c #A6A6A6",
"5 c #A4A4A4",
"6 c #929292",
"7 c #8E8E8E",
"8 c #8C8C8C",
"9 c #828282",
"0 c #808080",
"q c #767676",
"w c #686868",
"e c #5A5A5A",
"r c #FFFFFF",
"t c #B1BBD0",
"y c #C8CDD6",
"u c #D9D9D9",
"i c #D7D7D7",
/* pixels */
"############################################################################",
"############################################################################",
"######0000000000############################################################",
"#####0333333300 ############################################################",
"####00000000000 ############################################################",
"####0rrrrrrr 00 ############################################################",
"####0r333333 00 ####        #  ###############################%;$5##########",
"####0r3  333 00 ####  #######  ###############################;,--94########",
"####0r333333 00 ####  ####  #  ##    #########################:e#7&q+t######",
"####0r333333 00 ####  ####  #  #  ##  ########################:e###Owqo#####",
"####0        00 ####     #  #  #  ##  ########################:e####5@6=####",
"####0rrrrrrr 00 ####  ####  #  #      ########################:e####*<Xy####",
"####0r333333 00 ####  ####  #  #  ############################:e##2u##*<####",
"####0r3  333 00 ####  ####  #  #  ##  ########################:eiu##>uy#####",
"####0r333333 0 #####  ####  #  ##    #########################08##>u>#######",
"####0r333333  ################################################.1>u>#########",
"####0        ###############################################################",
"############################################################################",
"############################################################################",
"############################################################################",
"############################################################################"
};
