/* XPM */
static const char *b_save[] = {
/* width height ncolors chars_per_pixel */
"76 21 7 1",
/* colors */
"  c #000000",
". c none",
"X c #E0E0E0",
"o c #C0C0C0",
"O c #000080",
"+ c #FFFFFF",
"@ c #FFFF00",
/* pixels */
"............................................................................",
"............................................................................",
"..OO           OO...........................................................",
"..OO@@@@@@@@@@@OO ..........................................................",
"..OOXXXXXXXXXXXOO ..........................................................",
"..OO+++++++++++OO ..........................................................",
"..OOXXXXXXXXXXXOO ...     ..................................................",
"..OO+++++++++++OO ..  ...  .................................................",
"..OOXXXXXXXXXXXOO ..  ...  ..    ..  ...  ..    ............................",
"..OO+++++++++++OO ...   ....  ..  .  ...  .  ..  ...........................",
"..OOOOOOOOOOOOOOO .....   ......  ..  .  ..  ..  ...........................",
"..OOOOoooooooOOOO ......   ..     ..  .  ..      ...........................",
"..OOOOoOOooooOOOO ..  ...  .  ..  ...   ...  ...............................",
"..OOOOoOOooooOOOO ..  ...  .  ..  ...   ...  ..  ...........................",
"..OOOOoOOooooOOOO ...     ...   .  ... .....    ............................",
"..OOOOoOOooooOOOO ..........................................................",
"...OOOoooooooOOOO ..........................................................",
"....              ..........................................................",
"............................................................................",
"............................................................................",
"............................................................................"
};
